<svg xmlns="http://www.w3.org/2000/svg" width="1800" height="1100" viewBox="0 0 1800 1100">
  <rect x="0" y="0" width="1800" height="1100" fill="#f8fafc"/>

  <text x="70" y="86" font-family="Arial, sans-serif" font-size="48" font-weight="700" fill="#111827">Atlas Finance Architecture</text>
  <text x="70" y="124" font-family="Arial, sans-serif" font-size="24" fill="#4b5563">AI finance decision room: uploaded evidence -&gt; multi-agent debate -&gt; CFO recommendation -&gt; traceable audit trail</text>

  <rect x="50" y="170" width="1700" height="270" rx="28" fill="none" stroke="#cbd5e1" stroke-width="2" stroke-dasharray="8 8"/>
  <text x="74" y="204" font-family="Arial, sans-serif" font-size="20" fill="#374151">Operator and frontend surface</text>

  <rect x="100" y="245" width="330" height="120" rx="20" fill="#eff6ff" stroke="#2563eb" stroke-width="3"/>
  <text x="130" y="292" font-family="Arial, sans-serif" font-size="27" font-weight="700" fill="#111827">Finance operator</text>
  <text x="130" y="326" font-family="Arial, sans-serif" font-size="20" fill="#374151">Decision question</text>
  <text x="130" y="352" font-family="Arial, sans-serif" font-size="20" fill="#374151">Uploads / demo data</text>

  <rect x="580" y="230" width="430" height="150" rx="20" fill="#eff6ff" stroke="#2563eb" stroke-width="3"/>
  <text x="610" y="277" font-family="Arial, sans-serif" font-size="27" font-weight="700" fill="#111827">Next.js 16 + React UI</text>
  <text x="610" y="312" font-family="Arial, sans-serif" font-size="20" fill="#374151">Decision Room, dashboards, settings</text>
  <text x="610" y="338" font-family="Arial, sans-serif" font-size="20" fill="#374151">Vercel deployment</text>
  <text x="610" y="364" font-family="Arial, sans-serif" font-size="17" fill="#4b5563">https://atlasfinance-ai.vercel.app</text>

  <rect x="1130" y="230" width="420" height="150" rx="20" fill="#eff6ff" stroke="#2563eb" stroke-width="3"/>
  <text x="1160" y="277" font-family="Arial, sans-serif" font-size="27" font-weight="700" fill="#111827">CopilotKit / AG-UI</text>
  <text x="1160" y="312" font-family="Arial, sans-serif" font-size="20" fill="#374151">Shared live agent state</text>
  <text x="1160" y="338" font-family="Arial, sans-serif" font-size="20" fill="#374151">Streaming council progress</text>
  <text x="1160" y="364" font-family="Arial, sans-serif" font-size="20" fill="#374151">Human operator controls</text>

  <line x1="430" y1="305" x2="570" y2="305" stroke="#111827" stroke-width="4"/>
  <polygon points="570,305 548,292 548,318" fill="#111827"/>
  <line x1="1010" y1="305" x2="1120" y2="305" stroke="#111827" stroke-width="4"/>
  <polygon points="1120,305 1098,292 1098,318" fill="#111827"/>

  <rect x="50" y="470" width="1700" height="360" rx="28" fill="none" stroke="#cbd5e1" stroke-width="2" stroke-dasharray="8 8"/>
  <text x="74" y="504" font-family="Arial, sans-serif" font-size="20" fill="#374151">Agent service, evidence memory, and observability</text>

  <rect x="100" y="575" width="410" height="160" rx="20" fill="#f5f3ff" stroke="#7c3aed" stroke-width="3"/>
  <text x="130" y="622" font-family="Arial, sans-serif" font-size="27" font-weight="700" fill="#111827">FastAPI + LangGraph</text>
  <text x="130" y="657" font-family="Arial, sans-serif" font-size="20" fill="#374151">Finance council graph</text>
  <text x="130" y="683" font-family="Arial, sans-serif" font-size="20" fill="#374151">Treasury, FP&amp;A, Risk, Procurement</text>
  <text x="130" y="709" font-family="Arial, sans-serif" font-size="20" fill="#374151">CFO synthesis + reliability audit</text>

  <rect x="620" y="535" width="430" height="220" rx="20" fill="#ecfdf5" stroke="#059669" stroke-width="3"/>
  <text x="650" y="582" font-family="Arial, sans-serif" font-size="27" font-weight="700" fill="#111827">Redis Stack</text>
  <text x="650" y="617" font-family="Arial, sans-serif" font-size="20" fill="#374151">RedisJSON financial system of record</text>
  <text x="650" y="643" font-family="Arial, sans-serif" font-size="20" fill="#374151">RediSearch + vector policy RAG</text>
  <text x="650" y="669" font-family="Arial, sans-serif" font-size="20" fill="#374151">Decision streams + pub/sub activity</text>
  <text x="650" y="695" font-family="Arial, sans-serif" font-size="20" fill="#374151">Uploaded source reconciliation</text>
  <text x="650" y="727" font-family="Arial, sans-serif" font-size="17" fill="#4b5563">ledger, AP, vendors, CRM, headcount, policies, security evidence</text>

  <rect x="1160" y="535" width="270" height="150" rx="20" fill="#fffbeb" stroke="#d97706" stroke-width="3"/>
  <text x="1190" y="582" font-family="Arial, sans-serif" font-size="27" font-weight="700" fill="#111827">OpenAI</text>
  <text x="1190" y="617" font-family="Arial, sans-serif" font-size="20" fill="#374151">Role reasoning</text>
  <text x="1190" y="643" font-family="Arial, sans-serif" font-size="20" fill="#374151">Embeddings</text>
  <text x="1190" y="669" font-family="Arial, sans-serif" font-size="20" fill="#374151">Structured outputs</text>

  <rect x="1480" y="535" width="250" height="150" rx="20" fill="#fef2f2" stroke="#dc2626" stroke-width="3"/>
  <text x="1510" y="582" font-family="Arial, sans-serif" font-size="27" font-weight="700" fill="#111827">W&amp;B Weave</text>
  <text x="1510" y="617" font-family="Arial, sans-serif" font-size="20" fill="#374151">Trace spans</text>
  <text x="1510" y="643" font-family="Arial, sans-serif" font-size="20" fill="#374151">Eval packets</text>
  <text x="1510" y="669" font-family="Arial, sans-serif" font-size="20" fill="#374151">Replay gates</text>

  <polyline points="1340,380 1340,455 315,455 315,565" fill="none" stroke="#111827" stroke-width="4"/>
  <polygon points="315,565 302,543 328,543" fill="#111827"/>
  <line x1="510" y1="655" x2="610" y2="655" stroke="#111827" stroke-width="4"/>
  <polygon points="610,655 588,642 588,668" fill="#111827"/>
  <line x1="1050" y1="620" x2="1150" y2="620" stroke="#111827" stroke-width="4"/>
  <polygon points="1150,620 1128,607 1128,633" fill="#111827"/>
  <line x1="1430" y1="610" x2="1470" y2="610" stroke="#111827" stroke-width="4"/>
  <polygon points="1470,610 1448,597 1448,623" fill="#111827"/>

  <rect x="50" y="860" width="1700" height="190" rx="28" fill="none" stroke="#cbd5e1" stroke-width="2" stroke-dasharray="8 8"/>
  <text x="74" y="894" font-family="Arial, sans-serif" font-size="20" fill="#374151">Hackathon extension boundaries</text>

  <rect x="100" y="930" width="320" height="80" rx="10" fill="#ffffff" stroke="#111827" stroke-width="3"/>
  <text x="130" y="965" font-family="Arial, sans-serif" font-size="20" fill="#374151">Splunk telemetry adapter</text>
  <text x="130" y="992" font-family="Arial, sans-serif" font-size="17" fill="#4b5563">future incident/evidence feed</text>

  <rect x="480" y="930" width="320" height="80" rx="10" fill="#ffffff" stroke="#111827" stroke-width="3"/>
  <text x="510" y="965" font-family="Arial, sans-serif" font-size="20" fill="#374151">Slack agent surface</text>
  <text x="510" y="992" font-family="Arial, sans-serif" font-size="17" fill="#4b5563">future chat workflow</text>

  <rect x="860" y="930" width="320" height="80" rx="10" fill="#ffffff" stroke="#111827" stroke-width="3"/>
  <text x="890" y="965" font-family="Arial, sans-serif" font-size="20" fill="#374151">UiPath orchestration</text>
  <text x="890" y="992" font-family="Arial, sans-serif" font-size="17" fill="#4b5563">future case/BPMN layer</text>

  <rect x="1240" y="930" width="420" height="80" rx="10" fill="#ffffff" stroke="#111827" stroke-width="3"/>
  <text x="1270" y="965" font-family="Arial, sans-serif" font-size="20" fill="#374151">AWS DB / Arm64 optimization</text>
  <text x="1270" y="992" font-family="Arial, sans-serif" font-size="17" fill="#4b5563">future H0 and Arm-specific proof</text>

  <line x1="260" y1="930" x2="260" y2="800" stroke="#111827" stroke-width="4" stroke-dasharray="12 10"/>
  <line x1="640" y1="930" x2="640" y2="755" stroke="#111827" stroke-width="4" stroke-dasharray="12 10"/>
  <line x1="1020" y1="930" x2="1020" y2="735" stroke="#111827" stroke-width="4" stroke-dasharray="12 10"/>
  <line x1="1450" y1="930" x2="1450" y2="755" stroke="#111827" stroke-width="4" stroke-dasharray="12 10"/>
</svg>
